<?xml version="1.0" standalone="no"?>
<!DOCTYPE svg PUBLIC "-//W3C//DTD SVG 20010904//EN"
 "http://www.w3.org/TR/2001/REC-SVG-20010904/DTD/svg10.dtd">
<svg version="1.0" xmlns="http://www.w3.org/2000/svg"
 width="1563.000000pt" height="1563.000000pt" viewBox="0 0 1563.000000 1563.000000"
 preserveAspectRatio="xMidYMid meet">

<g transform="translate(0.000000,1563.000000) scale(0.100000,-0.100000)"
fill="#000000" stroke="none">
<path d="M3137 9513 c-4 -3 -52 -7 -108 -8 -66 -1 -103 -6 -108 -14 -5 -7 -25
-11 -51 -9 -27 1 -45 -2 -48 -10 -2 -7 -24 -12 -58 -12 -30 0 -54 -4 -54 -10
0 -5 -15 -10 -34 -10 -19 0 -38 -4 -41 -10 -3 -5 -17 -10 -31 -10 -13 0 -24
-4 -24 -10 0 -5 -14 -10 -31 -10 -22 0 -30 -4 -26 -13 4 -10 -2 -13 -18 -9
-12 2 -26 -1 -29 -7 -4 -6 -18 -11 -32 -11 -13 0 -24 -4 -24 -10 0 -5 -9 -10
-20 -10 -11 0 -20 -4 -20 -10 0 -5 -9 -10 -20 -10 -11 0 -20 -4 -20 -10 0 -5
-7 -10 -15 -10 -8 0 -15 -4 -15 -10 0 -5 -5 -10 -11 -10 -7 0 -22 -11 -35 -25
-13 -14 -28 -25 -34 -25 -5 0 -10 -4 -10 -10 0 -5 -5 -10 -11 -10 -15 0 -39
-26 -32 -34 4 -3 1 -6 -6 -6 -17 0 -25 -7 -148 -136 -18 -18 -33 -37 -33 -42
0 -4 -10 -19 -22 -32 -13 -14 -24 -27 -24 -30 -9 -34 -19 -50 -31 -50 -9 0
-13 -6 -10 -14 3 -8 -5 -22 -19 -32 -13 -11 -24 -27 -24 -36 0 -10 -4 -18 -10
-18 -5 0 -10 -11 -10 -25 0 -14 -4 -25 -10 -25 -5 0 -10 -11 -10 -25 0 -14 -4
-25 -10 -25 -5 0 -10 -9 -10 -20 0 -11 -4 -20 -10 -20 -5 0 -10 -13 -10 -30 0
-16 -4 -30 -10 -30 -5 0 -10 -11 -10 -25 0 -14 -4 -25 -10 -25 -5 0 -10 -18
-10 -40 0 -22 -4 -40 -10 -40 -5 0 -10 -18 -10 -39 0 -24 -5 -41 -14 -44 -8
-3 -12 -15 -9 -31 3 -15 -1 -31 -11 -41 -9 -9 -16 -32 -16 -50 0 -19 -4 -37
-10 -40 -5 -3 -10 -30 -10 -60 0 -30 -4 -57 -10 -60 -5 -3 -10 -28 -10 -56 0
-27 -4 -49 -10 -49 -5 0 -10 -25 -10 -55 0 -30 -4 -55 -10 -55 -6 0 -10 -27
-10 -60 0 -33 -4 -60 -10 -60 -5 0 -10 -22 -10 -50 0 -29 -4 -50 -11 -50 -7 0
-10 -20 -7 -55 2 -42 0 -55 -11 -55 -10 0 -12 -10 -8 -40 4 -30 2 -40 -9 -40
-10 0 -14 -12 -14 -40 0 -22 -4 -40 -10 -40 -5 0 -10 -13 -10 -30 0 -16 -4
-30 -10 -30 -5 0 -10 -11 -10 -25 0 -14 -6 -28 -14 -31 -8 -3 -12 -13 -9 -24
3 -10 0 -21 -6 -24 -6 -4 -11 -18 -11 -32 0 -15 -4 -23 -11 -19 -6 4 -13 -2
-16 -14 -3 -12 -9 -21 -14 -21 -5 0 -9 -9 -9 -20 0 -11 -4 -20 -10 -20 -5 0
-10 -8 -10 -18 0 -10 -9 -24 -20 -32 -11 -8 -20 -20 -20 -27 0 -7 -4 -13 -10
-13 -5 0 -10 -4 -10 -10 0 -15 -92 -110 -106 -110 -21 0 -25 -31 -19 -140 5
-108 10 -124 25 -100 6 8 10 11 10 5 0 -5 23 -11 50 -13 39 -2 50 1 50 13 0
12 10 14 60 8 52 -5 60 -4 54 10 -5 13 1 14 35 10 27 -4 41 -2 41 6 0 6 14 11
30 11 17 0 30 5 30 10 0 6 11 10 25 10 14 0 25 4 25 8 0 5 16 14 35 22 19 8
35 16 35 19 0 4 14 12 31 20 17 7 28 19 25 26 -2 7 3 12 12 11 9 0 25 13 36
31 12 18 25 32 29 33 12 0 57 48 57 60 0 5 5 10 10 10 6 0 10 7 10 15 0 8 4
15 8 15 5 0 14 16 22 35 8 19 17 35 22 35 4 0 8 7 8 15 0 8 5 15 10 15 6 0 10
9 10 19 0 11 5 23 10 26 6 3 10 15 10 26 0 10 5 19 10 19 6 0 10 11 10 25 0
14 5 25 10 25 6 0 10 14 10 30 0 17 5 30 10 30 6 0 10 14 10 30 0 17 5 30 10
30 6 0 10 21 10 46 0 27 4 43 10 39 6 -4 10 10 10 34 0 33 3 39 16 34 14 -5
15 0 11 36 -3 32 -1 44 10 48 13 5 14 18 9 64 -5 50 -3 57 10 52 14 -5 15 3
11 63 -3 38 -3 63 0 57 12 -31 25 -9 21 37 -2 37 0 49 10 45 9 -3 12 11 12 50
0 30 5 55 10 55 6 0 10 14 10 30 0 17 5 30 10 30 6 0 10 15 10 34 0 19 5 38
10 41 6 3 10 19 10 36 0 16 5 29 10 29 6 0 10 16 10 35 0 19 5 35 10 35 6 0
10 9 10 19 0 11 5 23 10 26 6 3 10 13 10 21 0 9 11 30 25 48 14 18 25 40 25
49 0 10 5 17 10 17 6 0 10 7 10 15 0 8 5 15 10 15 6 0 10 6 10 14 0 18 127
147 163 165 15 8 27 18 27 23 0 4 7 8 15 8 8 0 15 3 15 8 0 10 50 32 72 32 10
0 18 5 18 10 0 6 14 10 30 10 17 0 30 5 30 10 0 6 18 10 39 10 22 0 41 5 43
12 3 7 26 11 66 9 38 -1 62 2 62 8 0 6 18 11 39 11 26 0 41 5 45 16 4 10 13
13 25 9 12 -3 21 0 25 10 3 8 14 15 24 15 10 0 28 9 40 20 12 11 26 20 32 20
5 0 28 18 50 39 22 22 54 50 70 63 16 12 30 27 30 31 0 5 9 22 21 38 15 21 19
38 15 62 -3 17 -3 26 0 20 10 -22 24 -14 24 12 0 14 5 25 10 25 6 0 10 27 10
60 0 33 4 60 9 60 5 0 9 29 10 65 0 36 -3 65 -7 65 -4 0 -12 15 -17 33 l-10
32 -87 -2 c-49 -2 -90 2 -93 7 -7 11 -108 14 -118 3z m-1037 -1978 c0 -8 -4
-15 -10 -15 -5 0 -7 7 -4 15 4 8 8 15 10 15 2 0 4 -7 4 -15z"/>
<path d="M8521 9101 c-8 -5 -20 -7 -28 -4 -9 4 -13 -4 -13 -26 0 -18 6 -34 14
-37 8 -3 12 -13 9 -24 -3 -11 -2 -28 1 -37 6 -15 9 -15 17 -3 8 11 9 1 5 -34
-5 -40 -3 -47 9 -42 12 4 15 -4 15 -39 0 -25 5 -45 10 -45 6 0 10 -15 10 -34
0 -19 5 -38 10 -41 6 -3 10 -22 10 -41 0 -19 5 -34 10 -34 6 0 10 -18 10 -40
0 -22 5 -40 10 -40 6 0 10 -16 10 -35 0 -19 5 -35 10 -35 6 0 10 -18 10 -40 0
-22 5 -40 10 -40 6 0 10 -18 10 -40 0 -22 5 -40 10 -40 6 0 10 -16 10 -35 0
-19 5 -35 10 -35 6 0 10 -16 10 -35 0 -19 5 -35 10 -35 6 0 10 -18 10 -40 0
-22 5 -40 10 -40 6 0 10 -15 10 -34 0 -19 5 -38 10 -41 6 -3 10 -21 10 -40 0
-18 5 -35 12 -37 6 -2 13 -20 14 -38 1 -19 7 -36 13 -38 6 -2 11 -19 11 -38 0
-19 5 -34 10 -34 6 0 10 -18 10 -40 0 -22 5 -40 10 -40 6 0 10 -18 10 -40 0
-22 5 -40 10 -40 6 0 10 -16 10 -35 0 -19 5 -35 10 -35 6 0 10 -15 10 -34 0
-19 5 -38 10 -41 6 -3 10 -22 10 -41 0 -19 5 -34 10 -34 6 0 10 -18 10 -40 0
-22 5 -40 10 -40 6 0 10 -18 10 -40 0 -22 5 -40 10 -40 6 0 10 -16 10 -35 0
-19 5 -35 10 -35 6 0 10 -15 10 -34 0 -22 6 -36 16 -40 11 -4 15 -14 12 -30
-5 -27 -8 -26 82 -29 30 -1 61 -6 68 -10 7 -5 60 -6 117 -3 73 4 106 2 111 -6
8 -13 34 17 34 41 0 9 7 29 15 45 8 15 15 41 15 57 0 16 5 29 10 29 6 0 10 18
10 40 0 22 5 40 10 40 6 0 10 18 10 40 0 22 5 40 10 40 6 0 10 20 10 45 0 25
5 45 10 45 6 0 10 15 10 34 0 19 5 38 10 41 6 3 10 24 10 45 0 21 5 42 10 45
6 3 10 21 10 40 0 19 5 37 10 40 6 3 10 21 10 40 0 19 5 37 10 40 6 3 10 21
10 40 0 19 5 37 10 40 6 3 10 24 10 46 0 21 5 39 10 39 6 0 10 18 10 40 0 28
4 40 14 40 11 0 13 8 9 33 -3 23 0 37 11 46 10 9 13 22 9 43 -4 23 -2 33 11
40 13 7 15 17 10 44 -5 26 -3 35 11 40 14 6 16 16 11 58 -3 28 -3 45 0 39 13
-29 24 -10 24 40 0 42 4 55 21 66 26 15 39 2 39 -40 0 -15 6 -29 13 -32 9 -3
12 -16 9 -35 -2 -16 1 -33 7 -36 6 -4 11 -25 11 -47 0 -21 5 -39 10 -39 6 0
10 -18 10 -40 0 -22 5 -40 10 -40 6 0 10 -18 10 -39 0 -22 5 -43 10 -46 6 -3
10 -21 10 -40 0 -19 5 -37 10 -40 6 -3 10 -24 10 -45 0 -21 5 -42 10 -45 6 -3
10 -24 10 -46 0 -21 5 -39 10 -39 6 0 10 -18 10 -40 0 -22 5 -40 10 -40 6 0
10 -18 10 -40 0 -22 5 -40 10 -40 6 0 10 -17 10 -39 0 -23 6 -44 16 -52 10 -8
14 -22 10 -40 -3 -17 0 -32 9 -39 8 -7 15 -28 15 -46 0 -19 5 -34 10 -34 6 0
10 -18 10 -40 0 -22 5 -40 10 -40 6 0 10 -18 10 -40 0 -22 5 -40 10 -40 6 0
10 -18 10 -40 0 -22 5 -40 10 -40 6 0 10 -18 10 -40 0 -22 4 -40 9 -40 5 0 11
-12 13 -27 l3 -28 138 -1 c75 -1 140 2 142 7 3 4 18 4 33 -1 68 -21 82 -21 82
0 0 11 5 20 10 20 6 0 10 18 10 39 0 22 5 43 10 46 6 3 10 19 10 35 0 16 5 32
10 35 6 3 10 22 10 41 0 19 5 34 10 34 6 0 10 18 10 39 0 22 5 43 10 46 6 3
10 19 10 35 0 15 5 30 11 32 6 2 13 16 14 31 2 16 8 34 15 42 6 7 8 25 4 39
-4 19 -2 28 10 32 10 4 16 18 16 40 0 19 5 34 10 34 6 0 10 18 10 40 0 22 5
40 10 40 6 0 10 16 10 35 0 19 5 35 10 35 6 0 10 20 10 45 0 27 5 45 11 45 7
0 9 11 5 30 -4 22 -1 32 9 36 9 4 15 19 15 40 0 19 5 34 10 34 6 0 10 18 10
40 0 23 5 40 11 40 8 0 9 13 5 41 -6 35 -4 40 9 36 12 -5 15 2 15 33 0 22 5
40 10 40 6 0 10 13 10 29 0 16 6 41 14 56 8 15 12 33 10 40 -3 6 2 18 11 25 8
7 15 27 15 46 0 18 5 36 10 39 6 3 10 22 10 41 0 19 5 34 10 34 6 0 10 16 10
35 0 19 5 35 10 35 6 0 10 18 10 40 0 22 5 40 10 40 6 0 10 16 10 35 0 19 5
35 10 35 6 0 10 16 10 35 0 19 5 35 10 35 6 0 10 18 10 39 0 22 5 43 10 46 6
3 10 19 10 35 0 16 5 32 10 35 6 3 10 15 10 26 0 10 -4 19 -10 19 -5 0 -10 -5
-10 -11 0 -7 -30 -9 -85 -7 -47 2 -85 6 -85 10 0 10 -70 8 -130 -4 -39 -7 -55
-7 -58 1 -5 16 -22 13 -22 -4 0 -8 -4 -15 -10 -15 -5 0 -10 -18 -10 -40 0 -22
-4 -40 -10 -40 -5 0 -10 -20 -10 -45 0 -27 -5 -45 -11 -45 -8 0 -10 -15 -6
-46 3 -33 1 -47 -9 -51 -9 -3 -14 -20 -14 -44 0 -21 -4 -39 -10 -39 -5 0 -10
-20 -10 -44 0 -25 -4 -48 -10 -51 -5 -3 -10 -22 -10 -41 0 -19 -4 -34 -10 -34
-5 0 -10 -20 -10 -45 0 -25 -4 -45 -10 -45 -5 0 -10 -18 -10 -40 0 -27 -5 -43
-15 -46 -11 -5 -14 -15 -9 -38 4 -23 1 -36 -10 -46 -12 -9 -15 -22 -10 -48 5
-28 3 -38 -12 -49 -15 -11 -16 -17 -8 -31 12 -18 -1 -62 -18 -62 -4 0 -8 -18
-8 -40 0 -22 -4 -40 -10 -40 -5 0 -10 -20 -10 -44 0 -25 -4 -48 -10 -51 -5 -3
-10 -26 -10 -51 0 -24 -4 -44 -10 -44 -5 0 -10 -18 -10 -40 0 -22 -4 -40 -10
-40 -5 0 -10 -22 -10 -48 0 -42 -3 -50 -24 -60 -30 -13 -36 -7 -36 35 0 18 -4
33 -10 33 -5 0 -10 20 -10 45 0 29 -4 44 -12 43 -8 -2 -11 11 -9 38 1 23 -2
45 -8 49 -6 3 -11 21 -11 40 0 19 -4 37 -10 40 -5 3 -10 26 -10 51 0 24 -4 44
-10 44 -5 0 -10 18 -10 40 0 22 -4 40 -10 40 -5 0 -10 18 -10 41 0 22 -7 47
-15 55 -9 10 -12 25 -8 44 4 22 1 31 -12 36 -14 6 -16 15 -11 46 5 29 3 40 -9
44 -10 4 -15 19 -15 44 0 22 -4 42 -10 45 -5 3 -10 24 -10 46 0 21 -4 39 -10
39 -5 0 -10 20 -10 45 0 25 -4 45 -10 45 -5 0 -10 15 -10 34 0 19 -4 38 -10
41 -5 3 -10 26 -10 51 0 33 -4 44 -15 44 -13 0 -15 7 -9 35 4 24 2 39 -9 49
-11 11 -14 27 -10 56 4 26 2 40 -6 40 -6 0 -11 11 -11 24 0 55 2 54 -183 55
-194 1 -237 -7 -237 -45 0 -13 -4 -24 -10 -24 -5 0 -10 -18 -10 -39 0 -22 -4
-43 -10 -46 -5 -3 -10 -23 -10 -45 0 -26 -5 -40 -16 -44 -13 -5 -15 -15 -11
-42 4 -25 2 -41 -9 -51 -8 -8 -13 -29 -12 -46 1 -17 -3 -32 -10 -35 -7 -2 -12
-22 -12 -48 0 -24 -4 -44 -10 -44 -5 0 -10 -18 -10 -40 0 -22 -4 -40 -10 -40
-5 0 -10 -18 -10 -39 0 -22 -4 -43 -10 -46 -5 -3 -10 -24 -10 -45 0 -21 -4
-42 -10 -45 -5 -3 -10 -24 -10 -46 0 -21 -4 -39 -10 -39 -5 0 -10 -18 -10 -39
0 -22 -4 -43 -10 -46 -5 -3 -10 -26 -10 -51 0 -25 -5 -44 -11 -44 -7 0 -10
-17 -7 -45 2 -31 -1 -45 -9 -45 -8 0 -13 -15 -13 -40 0 -22 -4 -40 -10 -40 -5
0 -10 -22 -10 -49 0 -34 -5 -51 -15 -55 -10 -4 -13 -14 -9 -34 4 -19 1 -32
-10 -41 -9 -8 -16 -29 -16 -48 0 -31 -2 -34 -22 -27 -31 9 -37 21 -31 60 4 26
2 35 -11 40 -14 5 -16 14 -11 45 5 31 3 40 -9 45 -12 5 -16 17 -14 45 1 22 -3
44 -10 51 -7 7 -12 29 -12 49 0 21 -4 40 -9 43 -8 6 -14 31 -27 134 -3 23 -10
42 -15 42 -5 0 -9 18 -9 40 0 22 -4 40 -10 40 -5 0 -10 20 -10 45 0 25 -4 45
-10 45 -5 0 -10 18 -10 40 0 22 -4 40 -10 40 -5 0 -10 23 -10 50 0 28 -4 50
-10 50 -5 0 -10 18 -10 39 0 22 -5 41 -12 43 -8 3 -11 21 -10 47 2 34 0 42
-11 38 -11 -4 -14 3 -12 34 2 27 -2 42 -13 48 -11 6 -14 19 -9 50 4 31 2 44
-9 48 -9 3 -14 20 -14 43 0 22 -4 42 -10 45 -5 3 -10 24 -10 46 0 21 -4 39
-10 39 -5 0 -10 6 -10 14 0 12 -25 13 -147 9 -82 -2 -152 -5 -158 -5 -5 0 -17
2 -25 6 -8 3 -21 2 -29 -3z"/>
<path d="M11550 8580 c0 -5 -20 -10 -45 -10 -25 0 -45 -4 -45 -10 0 -5 -13
-10 -30 -10 -16 0 -30 -4 -30 -10 0 -5 -9 -10 -20 -10 -11 0 -20 -4 -20 -10 0
-5 -7 -10 -15 -10 -8 0 -15 -3 -15 -7 0 -5 -18 -19 -40 -33 -22 -13 -40 -31
-40 -40 0 -9 -8 -25 -17 -36 -25 -28 -43 -61 -43 -79 0 -8 -4 -15 -10 -15 -5
0 -10 -13 -10 -30 0 -16 -4 -30 -10 -30 -5 0 -10 -20 -10 -45 l0 -45 180 0
180 0 0 23 c0 14 18 43 44 70 33 36 51 47 74 47 17 0 32 5 34 11 2 6 36 11 87
11 46 0 88 -5 94 -11 6 -6 28 -11 48 -11 21 0 41 -4 44 -10 3 -5 13 -10 22
-10 27 0 63 -52 63 -90 0 -20 6 -42 13 -49 10 -11 10 -14 0 -18 -7 -3 -13 -16
-13 -29 0 -27 -40 -74 -63 -74 -8 0 -28 -7 -43 -15 -20 -10 -43 -13 -72 -9
-30 4 -53 1 -78 -11 -26 -12 -50 -16 -79 -12 -27 4 -51 1 -69 -8 -16 -8 -48
-15 -72 -15 -24 0 -44 -4 -44 -10 0 -5 -18 -10 -39 -10 -22 0 -43 -4 -46 -10
-3 -5 -17 -10 -29 -10 -60 0 -236 -123 -236 -165 0 -8 -4 -15 -10 -15 -5 0
-10 -7 -10 -15 0 -8 -4 -15 -10 -15 -5 0 -10 -10 -10 -23 0 -13 -5 -28 -11
-34 -16 -16 -16 -270 -1 -285 7 -7 12 -19 12 -28 0 -52 87 -165 153 -199 15
-8 27 -18 27 -23 0 -4 8 -8 18 -8 9 0 25 -7 35 -14 10 -8 27 -12 38 -9 10 3
27 -1 36 -8 23 -19 320 -20 328 -1 3 8 14 10 30 6 18 -4 25 -2 25 9 0 8 13 17
29 20 15 3 42 17 59 31 16 15 34 26 38 26 5 0 19 16 32 36 22 33 58 57 75 47
4 -2 7 -37 7 -77 0 -51 4 -77 14 -85 9 -7 17 -8 20 -2 3 5 0 12 -6 14 -7 3 -2
6 13 6 14 1 31 -5 38 -11 11 -11 14 -10 18 0 4 10 8 10 19 1 11 -9 18 -9 26
-1 7 7 23 12 37 11 24 0 24 -1 6 -9 -17 -7 -15 -9 13 -9 17 -1 32 3 32 7 0 8
18 7 93 -4 l39 -6 -6 363 c-9 578 -17 813 -27 823 -5 6 -9 23 -9 38 0 15 -4
28 -10 28 -5 0 -10 9 -10 20 0 11 -4 20 -10 20 -5 0 -10 7 -10 15 0 21 -81
105 -101 105 -9 0 -19 7 -23 15 -3 8 -15 15 -26 15 -11 0 -20 5 -20 10 0 6 -9
10 -20 10 -11 0 -20 5 -20 10 0 6 -11 10 -25 10 -14 0 -25 5 -25 10 0 6 -20
10 -45 10 -25 0 -45 5 -45 10 0 6 -77 10 -210 10 -133 0 -210 -4 -210 -10z
m495 -490 c3 -5 1 -10 -4 -10 -6 0 -11 5 -11 10 0 6 2 10 4 10 3 0 8 -4 11
-10z m-22 -300 c9 -11 12 -20 7 -20 -6 0 -10 -49 -10 -124 0 -73 -4 -127 -10
-131 -5 -3 -10 -15 -10 -26 0 -10 -4 -19 -10 -19 -5 0 -10 -7 -10 -15 0 -20
-69 -95 -87 -95 -7 0 -13 -4 -13 -10 0 -5 -7 -10 -15 -10 -8 0 -15 -4 -15 -10
0 -5 -13 -10 -30 -10 -16 0 -30 -4 -30 -10 0 -6 -43 -10 -110 -10 -67 0 -110
4 -110 10 0 6 -9 10 -20 10 -11 0 -20 3 -20 8 0 4 -10 12 -22 17 -13 6 -27 20
-33 31 -6 12 -16 28 -23 36 -17 22 -14 165 4 172 8 3 14 12 14 20 0 18 68 86
86 86 8 0 14 5 14 10 0 6 14 10 30 10 17 0 30 5 30 10 0 6 23 10 51 10 37 0
50 4 46 13 -3 9 9 11 49 9 35 -3 54 0 54 7 0 6 19 11 44 11 30 0 46 5 50 15 4
10 14 13 36 9 19 -4 30 -2 30 5 0 17 14 13 33 -9z"/>
<path d="M14580 8577 c0 -9 -11 -12 -34 -9 -18 2 -37 -1 -40 -7 -4 -6 -20 -11
-37 -11 -16 0 -29 -4 -29 -8 0 -5 -16 -14 -35 -22 -19 -8 -35 -20 -35 -28 0
-8 -6 -12 -14 -9 -12 5 -78 -48 -126 -100 -50 -55 -80 -92 -80 -99 0 -5 -12
-20 -25 -33 -14 -13 -25 -29 -25 -37 0 -8 -4 -14 -10 -14 -5 0 -10 -11 -10
-25 0 -14 -4 -25 -10 -25 -5 0 -10 -13 -10 -30 0 -16 -4 -30 -10 -30 -5 0 -10
-21 -10 -46 0 -27 -4 -43 -10 -39 -7 4 -10 -55 -10 -169 0 -111 4 -176 10
-176 6 0 10 -22 10 -50 0 -27 5 -50 10 -50 6 0 10 -16 10 -35 0 -19 5 -35 10
-35 6 0 10 -6 10 -14 0 -26 62 -130 102 -170 20 -21 40 -47 43 -57 4 -11 12
-19 18 -19 7 0 31 -18 55 -40 23 -22 49 -40 57 -40 8 0 15 -3 15 -7 0 -9 49
-33 67 -33 7 0 13 -4 13 -10 0 -5 18 -10 40 -10 22 0 40 -4 40 -10 0 -5 13
-10 28 -10 16 0 36 -6 45 -12 24 -18 290 -16 311 2 9 7 27 10 41 8 14 -3 33 1
42 8 10 7 30 14 46 14 15 0 27 5 27 10 0 6 9 10 20 10 11 0 20 4 20 8 0 5 21
20 46 33 26 13 58 36 73 51 14 15 32 28 39 28 8 0 12 5 10 12 -3 7 11 26 29
44 18 18 33 39 33 48 0 9 5 16 10 16 6 0 10 9 10 20 0 11 5 20 10 20 6 0 10
16 10 35 0 19 5 35 10 35 6 0 10 7 10 15 0 14 -23 16 -180 14 -169 -1 -180 -3
-180 -20 0 -11 -4 -19 -10 -19 -5 0 -10 -5 -10 -10 0 -14 -46 -60 -60 -60 -5
0 -10 -4 -10 -10 0 -5 -9 -10 -19 -10 -11 0 -23 -4 -26 -10 -4 -6 -58 -10
-131 -10 -76 0 -124 4 -124 10 0 6 -13 10 -30 10 -16 0 -30 5 -30 10 0 6 -7
10 -15 10 -17 0 -115 94 -115 110 0 6 -3 10 -7 10 -12 0 -33 51 -33 77 0 13
-4 23 -10 23 -5 0 -10 17 -10 38 0 21 -5 43 -12 50 -9 9 -9 12 0 12 7 0 12 7
12 15 0 13 63 15 510 15 l510 0 0 154 c0 93 -4 157 -10 161 -5 3 -10 28 -10
56 0 27 -4 49 -10 49 -5 0 -10 11 -10 25 0 14 -4 25 -10 25 -5 0 -10 9 -10 20
0 11 -4 20 -10 20 -5 0 -10 9 -10 20 0 11 -4 20 -10 20 -5 0 -10 7 -10 15 0 9
-10 27 -22 40 -13 13 -35 37 -50 54 -15 17 -32 31 -37 31 -4 0 -22 16 -38 35
-17 19 -37 35 -46 35 -8 0 -17 3 -19 8 -6 13 -90 52 -114 52 -13 0 -24 5 -24
10 0 6 -16 10 -35 10 -19 0 -35 5 -35 10 0 6 -60 10 -160 10 -125 0 -160 -3
-160 -13z m300 -297 c0 -5 9 -10 21 -10 19 0 76 -51 122 -108 9 -12 17 -36 17
-52 0 -17 5 -30 10 -30 6 0 10 -24 10 -54 0 -47 -3 -54 -22 -60 -13 -3 -158
-6 -324 -6 -246 0 -304 3 -320 14 -16 13 -17 18 -6 35 6 12 12 30 12 41 0 11
5 20 10 20 6 0 10 11 10 25 0 14 5 25 10 25 6 0 10 7 10 15 0 8 3 15 8 15 4 0
13 14 20 30 8 17 18 30 23 30 6 0 19 9 31 20 12 11 28 20 35 20 7 0 13 5 13
10 0 6 11 10 25 10 14 0 25 5 25 10 0 6 50 10 130 10 80 0 130 -4 130 -10z"/>
<path d="M12480 8554 c0 -10 6 -14 14 -11 12 5 13 -1 9 -29 -4 -22 -2 -34 6
-34 6 0 11 -16 11 -35 0 -19 5 -35 10 -35 6 0 10 -9 10 -20 0 -11 5 -20 10
-20 6 0 10 -13 10 -30 0 -16 5 -30 10 -30 6 0 10 -8 10 -18 0 -10 7 -27 15
-38 8 -12 11 -24 8 -28 -3 -3 2 -15 12 -26 9 -10 15 -26 11 -35 -3 -9 1 -18 9
-21 9 -4 15 -19 15 -35 0 -16 5 -29 10 -29 6 0 10 -11 10 -25 0 -14 5 -25 10
-25 6 0 10 -11 10 -25 0 -14 5 -25 10 -25 6 0 10 -11 10 -24 0 -14 5 -28 10
-31 6 -3 10 -17 10 -31 0 -13 5 -24 10 -24 6 0 10 -13 10 -30 0 -16 5 -30 10
-30 6 0 10 -11 10 -25 0 -14 5 -25 10 -25 6 0 10 -11 10 -25 0 -14 5 -25 10
-25 6 0 10 -13 10 -30 0 -16 5 -30 10 -30 6 0 10 -11 10 -24 0 -13 7 -27 16
-30 11 -4 14 -13 10 -30 -4 -17 -1 -26 10 -30 11 -4 15 -14 12 -31 -4 -17 -1
-25 8 -25 8 0 14 -10 14 -24 0 -14 5 -28 10 -31 6 -3 10 -17 10 -31 0 -13 5
-24 10 -24 6 0 10 -11 10 -25 0 -14 5 -25 10 -25 6 0 10 -11 10 -24 0 -14 5
-28 10 -31 6 -3 10 -17 10 -31 0 -13 5 -24 10 -24 6 0 10 -11 10 -25 0 -14 5
-25 10 -25 6 0 10 -14 10 -31 0 -24 4 -30 15 -25 12 4 14 0 9 -19 -7 -29 7
-33 30 -9 9 8 16 11 16 5 0 -12 305 -16 334 -5 10 4 16 18 16 35 0 16 5 29 10
29 6 0 10 9 10 20 0 11 4 20 9 20 5 0 11 14 15 30 3 17 9 44 12 60 4 17 10 30
15 30 5 0 9 11 9 25 0 16 6 25 16 25 12 0 15 7 11 26 -3 16 0 28 9 31 8 3 14
16 14 29 0 13 5 24 10 24 6 0 10 14 10 30 0 17 5 30 10 30 6 0 10 14 10 30 0
17 5 30 10 30 6 0 10 14 10 30 0 17 5 30 10 30 6 0 10 9 10 19 0 11 5 23 10
26 6 3 10 19 10 36 0 16 5 29 10 29 6 0 10 11 10 25 0 14 5 25 10 25 6 0 10
11 10 24 0 14 5 28 10 31 6 3 10 17 10 31 0 13 5 24 10 24 6 0 10 11 10 24 0
13 7 29 15 36 8 7 15 21 15 31 0 10 5 21 10 24 6 3 10 17 10 30 0 13 5 27 10
30 6 3 10 17 10 31 0 13 5 24 10 24 6 0 10 11 10 25 0 14 5 25 10 25 6 0 10
14 10 30 0 17 5 30 10 30 6 0 10 14 10 30 0 17 5 30 10 30 6 0 10 9 10 19 0
11 5 23 10 26 6 3 10 19 10 36 0 16 5 29 10 29 6 0 10 11 10 24 0 13 5 26 10
28 6 2 11 20 12 40 1 21 5 35 10 32 4 -3 8 2 8 10 0 14 -25 16 -194 16 -207 0
-206 0 -206 -51 0 -10 -4 -19 -10 -19 -5 0 -10 -11 -10 -24 0 -14 -4 -28 -10
-31 -5 -3 -10 -22 -10 -41 0 -19 -4 -34 -10 -34 -5 0 -10 -13 -10 -30 0 -16
-4 -30 -10 -30 -5 0 -10 -13 -10 -29 0 -17 -4 -33 -10 -36 -5 -3 -10 -17 -10
-30 0 -13 -4 -27 -10 -30 -5 -3 -10 -17 -10 -30 0 -13 -4 -27 -10 -30 -5 -3
-10 -19 -10 -36 0 -16 -4 -29 -10 -29 -5 0 -10 -15 -10 -34 0 -19 -4 -38 -10
-41 -5 -3 -10 -19 -10 -34 0 -16 -6 -34 -14 -40 -8 -7 -12 -21 -8 -33 3 -13
-1 -24 -12 -30 -13 -7 -16 -17 -11 -39 5 -21 2 -31 -9 -35 -9 -4 -16 -18 -16
-34 0 -16 -4 -32 -10 -35 -5 -3 -10 -22 -10 -41 0 -19 -4 -34 -10 -34 -5 0
-10 -11 -10 -24 0 -14 -4 -28 -10 -31 -5 -3 -10 -22 -10 -41 0 -29 -3 -34 -24
-34 -16 0 -27 7 -31 20 -3 11 -11 20 -16 20 -5 0 -9 15 -9 34 0 19 -4 38 -10
41 -5 3 -10 19 -10 36 0 16 -4 29 -10 29 -5 0 -10 18 -10 40 0 22 -4 40 -10
40 -5 0 -10 14 -10 30 0 17 -4 30 -10 30 -5 0 -10 16 -10 35 0 19 -4 35 -10
35 -5 0 -10 16 -10 35 0 19 -4 35 -10 35 -5 0 -10 16 -10 36 0 27 -4 35 -14
31 -12 -5 -13 1 -9 29 4 22 2 34 -6 34 -6 0 -11 14 -11 30 0 21 -5 30 -16 30
-12 0 -15 6 -11 21 3 11 -2 34 -10 52 -31 62 -33 67 -33 92 0 14 -4 25 -10 25
-5 0 -10 11 -10 24 0 14 -4 28 -10 31 -5 3 -10 19 -10 36 0 16 -4 29 -10 29
-5 0 -10 11 -10 24 0 14 -4 28 -10 31 -5 3 -10 17 -10 31 l0 24 -200 0 c-177
0 -200 -2 -200 -16z"/>
</g>
</svg>
